<svg width="767" height="602" viewBox="0 0 767 602" fill="none" xmlns="http://www.w3.org/2000/svg">
<path d="M42.3574 291.816C32.6562 282.486 22.9551 273.176 13.2326 263.846C35.3273 264.097 57.4006 264.347 79.4952 264.598C83.427 272.717 87.3373 280.816 91.2691 288.935H242.385C242.406 293.005 242.427 297.076 242.47 301.146C191.913 301.355 141.377 301.563 90.8203 301.751C86.1834 308.994 81.5466 316.237 76.9097 323.459H13.083C22.8483 312.897 32.6135 302.356 42.3787 291.795L42.3574 291.816Z" stroke="#231F20" stroke-width="10" stroke-miterlimit="10"/>
<path d="M534.21 289.29V303.15C580.13 303.525 626.05 303.901 671.992 304.277L672.334 334.626C699.535 321.726 726.737 308.806 753.939 295.907C726.395 285.783 698.83 275.66 671.287 265.558C671.201 274.199 671.137 282.819 671.052 291.461C625.431 290.73 579.81 290.021 534.21 289.29Z" stroke="#231F20" stroke-width="10" stroke-miterlimit="10"/>
<path d="M267.92 112.226C311.49 77.2853 355.059 42.3234 398.608 7.38232C439.592 44.3689 480.597 81.3346 521.581 118.321C521.581 163.177 521.56 208.032 521.539 252.888C513.355 266.476 505.171 280.064 496.987 293.673C505.192 303.713 513.376 313.774 521.581 323.814V471.155C480.597 512.316 439.592 553.477 398.608 594.638C355.038 552.433 311.468 510.229 267.92 468.024V112.247V112.226Z" stroke="#231F20" stroke-width="10" stroke-miterlimit="10"/>
<path d="M488.097 254.913C488.61 209.201 489.145 163.49 489.657 117.799C459.165 91.3537 428.694 64.9079 398.202 38.4829C366.598 63.6972 335.016 88.9324 303.413 114.147C303.327 169.042 303.22 223.938 303.135 278.833C306.896 287.099 310.656 295.343 314.417 303.609L473.46 306.218C478.631 314.379 483.802 322.541 488.974 330.681V469.777L398.629 554.563C366.812 524.735 334.973 494.908 303.156 465.06V359.569" stroke="#231F20" stroke-width="10" stroke-miterlimit="10"/>
</svg>
