<svg width="19739" height="13700" viewBox="0 0 19739 13700" fill="none" xmlns="http://www.w3.org/2000/svg">
<path d="M1555.01 6287.07C1174.38 5865.09 945.748 5593.68 549 5122.69C1130.64 5135.9 1971.27 5109.47 2552.91 5122.68C2795 5545.78 2902.59 5681.49 3084.15 6135.09H6820.75C6821.31 6349.84 6821.87 6670.11 6823 6884.86C5492.08 6895.87 4415.07 6874.95 3084.15 6884.86C2902.59 7222.18 2734.48 7469.64 2464.6 7956.6L549 7868.79C905.401 7317.97 1268.53 6791.1 1584.58 6352.04L1555.01 6287.07Z" stroke="white" stroke-width="500" stroke-miterlimit="10"/>
<path d="M13964.5 6196.35V6949.23C15094.4 6969.64 16224.2 6990.05 17354.7 7010.46L17363.1 8659.09C18032.4 7958.37 18701.7 7256.51 19371 6555.78C18693.3 6005.86 18015 5455.94 17337.3 4907.15C17335.2 5376.57 17333.6 5844.86 17331.5 6314.27C16209 6274.59 15086.5 6236.04 13964.5 6196.35Z" stroke="white" stroke-width="500" stroke-miterlimit="10"/>
<path d="M7522.35 2650.92C8513.37 1875.76 9504.38 1100.15 10494.9 325C11427.1 1145.53 12359.8 1965.6 13292 2786.13C13292 3781.23 13291.5 4776.33 13291 5771.43C13104.9 6072.88 12918.7 6374.33 12732.6 6676.24C12919.2 6898.97 13105.4 7122.16 13292 7344.89V10613.6C12359.8 11526.7 11427.1 12439.9 10494.9 13353C9503.9 12416.7 8512.88 11480.4 7522.35 10544.1V2651.38V2650.92Z" stroke="white" stroke-width="500" stroke-miterlimit="10"/>
<path d="M11736.2 6136.15C11743.6 5364.03 11751.4 4591.9 11758.8 3820.13C11316.9 3373.43 10875.3 2926.72 10433.4 2480.37C9975.32 2906.27 9517.61 3332.53 9059.58 3758.43C9058.34 4685.69 9056.79 5612.94 9055.55 6540.2C9110.06 6679.82 9164.56 6819.08 9219.07 6958.7L11524.1 7002.77C11599 7140.62 11674 7278.48 11748.9 7415.98V9765.5L10439.5 11197.6C9978.42 10693.8 9516.99 10190 9055.86 9685.82V7903.94" stroke="white" stroke-width="500" stroke-miterlimit="10"/>
</svg>
