<svg width="1157" height="1036" viewBox="0 0 1157 1036" fill="none" xmlns="http://www.w3.org/2000/svg">
<path d="M237.357 508.816C227.656 499.486 217.955 490.176 208.233 480.846C230.327 481.097 252.401 481.347 274.495 481.598C278.427 489.717 282.337 497.816 286.269 505.935H437.385C437.406 510.005 437.427 514.076 437.47 518.146C386.913 518.355 336.377 518.563 285.82 518.751C281.183 525.994 276.547 533.237 271.91 540.459H208.083C217.848 529.897 227.613 519.356 237.379 508.795L237.357 508.816Z" stroke="white" stroke-width="10" stroke-miterlimit="10"/>
<path d="M729.21 506.29V520.15C775.13 520.525 821.05 520.901 866.992 521.277L867.334 551.626C894.535 538.726 921.737 525.806 948.939 512.907C921.395 502.783 893.83 492.66 866.287 482.558C866.201 491.199 866.137 499.819 866.052 508.461C820.431 507.73 774.81 507.021 729.21 506.29Z" stroke="white" stroke-width="10" stroke-miterlimit="10"/>
<path d="M462.92 329.226C506.49 294.285 550.059 259.323 593.608 224.382C634.592 261.369 675.597 298.335 716.581 335.321C716.581 380.177 716.56 425.032 716.539 469.888C708.355 483.476 700.171 497.064 691.987 510.673C700.192 520.713 708.376 530.774 716.581 540.814V688.155C675.597 729.316 634.592 770.477 593.608 811.638C550.038 769.433 506.468 727.229 462.92 685.024V329.247V329.226Z" stroke="white" stroke-width="10" stroke-miterlimit="10"/>
<path d="M683.097 471.913C683.61 426.201 684.145 380.49 684.657 334.799C654.165 308.354 623.694 281.908 593.202 255.483C561.598 280.697 530.016 305.932 498.413 331.147C498.327 386.042 498.22 440.938 498.135 495.833C501.896 504.099 505.656 512.343 509.417 520.609L668.46 523.218C673.631 531.379 678.802 539.541 683.974 547.681V686.777L593.629 771.563C561.812 741.735 529.973 711.908 498.156 682.06V576.569" stroke="white" stroke-width="10" stroke-miterlimit="10"/>
</svg>
