<?xml version="1.0" standalone="no"?>
<!DOCTYPE svg PUBLIC "-//W3C//DTD SVG 20010904//EN"
 "http://www.w3.org/TR/2001/REC-SVG-20010904/DTD/svg10.dtd">
<svg version="1.0" xmlns="http://www.w3.org/2000/svg"
 width="300.000000pt" height="425.000000pt" viewBox="0 0 300.000000 425.000000"
 preserveAspectRatio="xMidYMid meet">
<metadata>
Created by potrace 1.10, written by Peter Selinger 2001-2011
</metadata>
<g transform="translate(0.000000,425.000000) scale(0.100000,-0.100000)"
fill="#000000" stroke="none">
<path d="M1313 3185 c-218 -39 -407 -140 -559 -297 -137 -142 -214 -276 -259
-450 -77 -305 -15 -604 178 -860 139 -185 378 -332 622 -383 96 -20 292 -23
385 -5 340 63 626 282 766 586 64 137 87 247 87 414 0 123 -4 159 -25 240
-106 399 -428 690 -838 756 -104 17 -261 17 -357 -1z m367 -19 c67 -16 67 -16
81 -16 5 0 8 -4 4 -9 -3 -6 10 -8 32 -5 25 3 32 2 19 -4 -14 -6 -6 -11 40 -21
71 -16 80 -21 63 -33 -10 -7 -6 -8 12 -4 17 4 35 -1 50 -12 13 -10 36 -23 51
-29 15 -7 34 -24 44 -38 9 -14 23 -25 30 -25 8 0 14 -5 14 -11 0 -6 7 -8 16
-5 11 4 15 2 11 -8 -4 -10 -1 -13 9 -9 7 3 14 0 14 -7 0 -7 12 -25 28 -40 41
-41 85 -91 112 -130 14 -19 31 -39 38 -43 6 -4 12 -14 12 -21 0 -8 7 -19 15
-26 8 -7 15 -21 15 -31 0 -11 4 -19 10 -19 5 0 13 -15 19 -32 5 -18 19 -58 30
-88 38 -99 54 -214 48 -340 -3 -63 -8 -124 -10 -135 -32 -129 -46 -172 -80
-245 -66 -138 -140 -235 -257 -332 -65 -55 -194 -138 -214 -138 -6 0 -24 -7
-41 -16 -78 -41 -207 -74 -317 -80 -222 -13 -446 43 -633 159 -82 51 -245 206
-245 234 0 7 -6 13 -13 13 -8 0 -22 18 -32 40 -10 22 -22 40 -27 40 -4 0 -8 7
-8 15 0 9 -11 32 -24 53 -32 48 -83 205 -91 279 -21 186 8 396 71 527 13 28
24 55 24 61 0 7 9 20 20 30 11 10 20 22 20 27 0 5 22 39 50 75 28 36 50 70 50
74 0 5 3 8 8 7 4 -1 34 25 67 58 54 55 99 91 147 119 101 59 130 74 171 86 26
7 47 16 47 20 0 4 19 10 43 14 66 13 70 14 107 24 53 14 287 12 350 -3z"/>
<path d="M1453 2830 c-40 -33 -77 -60 -82 -60 -6 0 -15 -9 -21 -20 -6 -11 -16
-17 -22 -14 -6 4 -8 3 -5 -3 4 -5 -6 -16 -21 -24 -15 -8 -37 -25 -49 -39 -21
-23 -23 -35 -23 -145 0 -66 -3 -150 -7 -187 l-6 -68 -96 5 c-53 3 -130 8 -171
10 -60 3 -77 8 -90 25 -12 16 -30 22 -83 26 -38 3 -76 3 -85 -1 -32 -12 10
-25 81 -25 62 0 68 -2 79 -25 l11 -25 169 0 168 0 0 -23 0 -22 -168 3 -167 4
-14 -26 c-14 -25 -18 -26 -100 -26 l-85 0 37 38 37 38 -35 34 c-19 19 -35 29
-35 23 0 -7 5 -15 10 -18 15 -9 12 -42 -6 -77 -23 -45 -6 -57 81 -59 71 -1
125 16 118 38 -3 7 47 11 173 11 l177 0 -7 -173 -6 -173 36 -43 c20 -24 67
-73 105 -110 38 -36 69 -70 69 -75 0 -14 43 -54 58 -54 7 0 12 -5 12 -11 0
-10 9 -10 70 5 8 2 14 9 13 15 -2 6 2 11 8 11 6 0 60 49 120 109 60 61 109
107 110 103 0 -4 4 2 9 13 5 11 9 98 9 193 1 98 5 172 10 172 5 0 12 -8 14
-17 4 -14 5 -14 6 -3 2 35 232 18 258 -19 10 -16 19 -18 42 -11 16 4 32 6 35
2 3 -3 6 0 6 6 0 7 3 11 8 10 17 -5 102 26 118 43 31 34 13 48 -108 87 -81 27
-89 27 -116 4 -18 -16 -41 -19 -142 -20 -107 -2 -120 0 -121 16 -1 9 0 99 0
200 1 100 -3 182 -7 182 -5 0 -17 8 -28 19 -11 10 -30 23 -42 30 -13 7 -19 17
-15 27 3 8 1 14 -5 12 -5 -2 -19 7 -30 20 -11 13 -24 23 -29 24 -4 0 -7 4 -5
9 1 5 -7 9 -18 9 -11 0 -20 4 -20 8 0 5 -20 23 -45 41 -25 18 -45 30 -45 27 0
-2 61 -59 135 -126 l135 -122 0 -165 c0 -161 0 -165 -26 -198 l-25 -34 23 -34
c22 -33 23 -41 20 -199 l-3 -165 -145 -138 -146 -138 -144 144 -144 143 6 296
c2 162 7 341 10 397 l6 102 121 98 c159 130 174 142 162 142 -5 0 -43 -27 -82
-59z m856 -607 c21 -8 11 -14 -75 -45 l-99 -35 -3 28 -3 28 -151 3 c-135 3
-151 5 -154 21 -2 16 11 17 152 17 l154 0 0 25 0 24 78 -28 c42 -16 88 -33
101 -38z"/>
<path d="M2140 2240 c0 -18 -7 -20 -67 -22 l-68 -2 70 -5 c59 -5 70 -9 67 -23
-4 -23 1 -23 78 4 l64 21 -59 23 c-75 29 -85 29 -85 4z"/>
<path d="M1408 2750 l-136 -110 -6 -203 c-3 -111 -7 -286 -10 -388 l-4 -186
133 -133 134 -133 135 128 136 128 0 161 c0 155 -1 163 -25 198 -21 32 -23 38
-9 49 8 7 12 19 9 28 -3 8 -3 12 1 8 4 -4 13 -2 21 4 10 9 13 49 13 169 l0
157 -92 83 c-51 46 -109 99 -128 117 l-36 33 -136 -110z m265 -44 l77 -68 0
-154 c0 -96 -4 -154 -10 -154 -6 0 -10 56 -10 149 l0 149 -77 68 c-43 37 -86
74 -95 82 -15 12 -28 5 -116 -63 l-99 -78 -7 -184 c-7 -167 -6 -187 10 -204
16 -17 33 -19 190 -19 l172 0 19 -29 c16 -26 17 -46 13 -193 l-5 -164 -107
-98 -108 -98 -109 103 -110 104 -1 123 c0 87 3 123 11 120 8 -3 11 -42 10
-118 l-1 -115 100 -93 100 -94 43 38 c23 21 68 61 100 90 l57 53 0 158 c0 87
-4 164 -9 172 -6 10 -51 14 -182 18 -229 7 -219 -1 -218 177 1 72 4 161 8 199
l6 67 109 85 109 86 26 -24 c14 -13 61 -54 104 -91z m-137 43 c4 -8 9 -7 14 2
6 9 23 -2 61 -39 29 -29 57 -52 61 -52 4 0 9 -15 9 -32 1 -18 3 -25 6 -15 7
27 23 20 24 -10 1 -16 1 -82 0 -149 -2 -97 1 -123 13 -133 8 -7 20 -10 26 -6
6 4 6 -4 -2 -22 -24 -56 -18 -55 -202 -48 -94 4 -177 12 -183 17 -10 8 -13 57
-13 181 l0 171 27 28 c15 15 31 28 36 28 4 0 24 16 42 36 21 22 40 34 49 31
10 -4 13 -1 9 9 -6 16 13 19 23 3z m248 -201 c-9 -59 -14 -60 -14 -5 0 26 5
47 10 47 6 0 8 -16 4 -42z m-460 -333 c24 -24 30 -25 166 -26 77 -1 143 -2
148 -4 26 -7 42 -19 42 -31 0 -8 6 -11 16 -7 12 4 14 0 9 -18 -3 -13 -8 -74
-9 -134 -5 -155 -4 -145 -23 -138 -11 4 -14 3 -9 -6 5 -8 1 -14 -13 -18 -12
-3 -21 -10 -21 -17 -1 -6 -12 -20 -27 -31 -14 -11 -35 -30 -46 -42 -11 -13
-23 -23 -27 -23 -8 0 -55 38 -96 78 -19 17 -38 32 -43 32 -5 0 -15 13 -22 29
-7 16 -16 28 -20 26 -3 -3 -6 43 -5 100 1 116 -8 140 -46 116 -18 -11 -20 -11
-15 3 4 9 2 16 -3 16 -6 0 -10 23 -10 51 0 36 3 48 12 43 8 -5 9 -2 5 9 -9 25
8 21 37 -8z"/>
<path d="M744 2271 c27 -28 31 -29 47 -15 15 13 17 13 23 -2 10 -25 -10 -41
-33 -27 -15 9 -23 7 -46 -13 l-28 -24 62 0 c55 0 63 2 73 24 6 14 20 27 32 29
20 4 20 4 -2 6 -13 0 -27 11 -33 24 -8 19 -19 23 -67 25 l-57 3 29 -30z"/>
<path d="M1038 2233 c28 -2 76 -2 105 0 28 2 5 3 -53 3 -58 0 -81 -1 -52 -3z"/>
</g>
</svg>
