<svg xmlns="http://www.w3.org/2000/svg" style="display: none;">
  <defs>
    <symbol id="send" viewBox="0 0 24 24">
      <path d="m2 21 21-9L2 3v7l15 2-15 2v7Z"/>
    </symbol>
    <symbol id="arrow-right" viewBox="0 0 24 24">
      <path d="m14.2 4.8 6.5 6.5.7.7-.7.7-6.5 6.5-1.4-1.4 4.8-4.8H3v-2h14.6l-4.8-4.8 1.4-1.4Z"/>
    </symbol>
    <symbol id="chevron-right" viewBox="0 0 24 24">
      <path d="M13.6 12 7.8 6.2l1.4-1.4 6.5 6.5.7.7-.7.7-6.5 6.5-1.4-1.4 5.8-5.8Z"/>
    </symbol>
    <symbol id="twitter" viewBox="0 0 24 24">
      <path d="M18.24 2.25h3.31l-7.23 8.26 8.5 11.24h-6.65l-5.21-6.82-5.97 6.82H1.68l7.73-8.84L1.25 2.25h6.83l4.71 6.23 5.45-6.23Zm-1.16 17.52h1.84L7.08 4.13H5.12l11.96 15.64Z"/>
    </symbol>
    <symbol id="github" viewBox="0 0 24 24">
      <path d="M12 2a10 10 0 0 0-3.2 19.5c.5 0 .7-.2.7-.5v-1.7C6.7 20 6.1 18 6.1 18c-.4-1.2-1-1.5-1-1.5-1-.6 0-.6 0-.6 1 0 1.5 1 1.5 1 .9 1.6 2.4 1.1 3 .9 0-.7.3-1.1.6-1.4-2.2-.2-4.6-1-4.6-4.9 0-1.1.4-2 1-2.7 0-.3-.4-1.3.2-2.7 0 0 .8-.2 2.7 1a9.4 9.4 0 0 1 5 0c2-1.2 2.8-1 2.8-1 .5 1.4.1 2.4 0 2.7.7.7 1 1.6 1 2.7 0 3.8-2.3 4.7-4.5 5 .4.2.7.8.7 1.8V21c0 .3.2.6.7.5A10 10 0 0 0 12 2Z"/>
    </symbol>
    <symbol id="behance" viewBox="0 0 24 24">
      <path d="M4.654 3c.461 0 .887.035 1.278.14.39.07.711.216.996.391s.497.426.641.747c.14.32.216.711.216 1.137 0 .496-.106.922-.356 1.242-.215.32-.566.606-.997.817.606.176 1.067.496 1.348.922s.461.957.461 1.563c0 .496-.105.922-.285 1.278a2.3 2.3 0 0 1-.782.887c-.32.215-.711.39-1.137.496a5.3 5.3 0 0 1-1.278.176L0 12.803V3zm-.285 3.978c.39 0 .71-.105.957-.285.246-.18.355-.497.355-.887 0-.216-.035-.426-.105-.567a1 1 0 0 0-.32-.355 1.8 1.8 0 0 0-.461-.176c-.176-.035-.356-.035-.567-.035H2.17v2.31c0-.005 2.2-.005 2.2-.005zm.105 4.193c.215 0 .426-.035.606-.07.176-.035.356-.106.496-.216s.25-.215.356-.39c.07-.176.14-.391.14-.641 0-.496-.14-.852-.426-1.102-.285-.215-.676-.32-1.137-.32H2.17v2.734h2.305zm6.858-.035q.428.427 1.278.426c.39 0 .746-.106 1.032-.286q.426-.32.53-.64h1.74c-.286.851-.712 1.457-1.278 1.848-.566.355-1.243.566-2.06.566a4.1 4.1 0 0 1-1.527-.285 2.8 2.8 0 0 1-1.137-.782 2.85 2.85 0 0 1-.712-1.172c-.175-.461-.25-.957-.25-1.528 0-.531.07-1.032.25-1.493.18-.46.426-.852.747-1.207.32-.32.711-.606 1.137-.782a4 4 0 0 1 1.493-.285c.606 0 1.137.105 1.598.355.46.25.817.532 1.102.958.285.39.496.851.641 1.348.07.496.105.996.07 1.563h-5.15c0 .58.21 1.11.496 1.396m2.24-3.732c-.25-.25-.642-.391-1.103-.391-.32 0-.566.07-.781.176s-.356.25-.496.39a.96.96 0 0 0-.25.497c-.036.175-.07.32-.07.46h3.196c-.07-.526-.25-.882-.497-1.132zm-3.127-3.728h3.978v.957h-3.978z"/>    </symbol>
    <symbol id="menu" viewBox="0 0 24 24">
      <path d="M22 6H2V4h20v2ZM2 13h16v-2H2v2Zm0 7h20v-2H2v2Z"/>
    </symbol>
    <symbol id="figma" viewBox="0 0 24 24">
      <path fill-rule="evenodd" d="M15 10a2 2 0 1 0 0 4 2 2 0 0 0 0-4Zm-2 5.5A4 4 0 0 0 17.6 9a4 4 0 0 0 .2-5.8A4 4 0 0 0 15 2H9a4 4 0 0 0-2.6 7 4 4 0 0 0 0 6A4 4 0 0 0 5 18a4 4 0 1 0 8 0v-2.5Zm-2 .5H9a2 2 0 1 0 2 2v-2ZM9 8h2V4H9a2 2 0 1 0 0 4Zm0 2a2 2 0 1 0 0 4h2v-4H9Zm4-2V4h2a2 2 0 0 1 0 4h-2Z"/>
    </symbol>
    <symbol id="copy" viewBox="0 0 24 24">
      <path d="M3 2h12v4H7v10H3V2Zm6 20V8h12v11l-3 3H9Z"/>
    </symbol>
    <symbol id="error" viewBox="0 0 24 24">
      <path d="M19.7 19H4.3L12 5l7.7 14ZM11.1 2.5l-9.4 17 1 1.5h18.7l.9-1.5-9.4-17H11ZM11 14v-4h2v4h-2Zm0 3v-2h2v2h-2Z"/>
    </symbol>
    <symbol id="arrow-left" viewBox="0 0 24 24">
      <path d="m9.8 19.2-6.5-6.5-.7-.7.7-.7 6.5-6.5 1.4 1.4L6.4 11H21v2H6.4l4.8 4.8-1.4 1.4Z"/>
    </symbol>
    <symbol id="check" viewBox="0 0 24 24">
      <path d="m20.2 7.2-10 10-.7.7-.7-.7-5-5 1.4-1.4L9.5 15l9.3-9.3 1.4 1.4Z"/>
    </symbol>
    <symbol id="link" viewBox="0 0 24 24">
      <path d="M9 4 8 5v2h2V6h10v7H10v-2H8v3l1 1h12l1-1V5l-1-1H9Zm2 4H3L2 9v9l1 1h12l1-1v-2h-2v1H4v-7h10v2h2V9l-1-1h-4Z"/>
    </symbol>
    <symbol id="close" viewBox="0 0 24 24">
      <path d="M19 6.4 17.6 5 12 10.6 6.4 5 5 6.4l5.6 5.6L5 17.6 6.4 19l5.6-5.6 5.6 5.6 1.4-1.4-5.6-5.6L19 6.4Z"/>
    </symbol>
    <symbol id="pause" viewBox="0 0 24 24">
      <path d="M6 19h4V5H6v14Zm8-14v14h4V5h-4Z"/>
    </symbol>
    <symbol id="play" viewBox="0 0 24 24">
      <path d="M8 5v14l11-7L8 5Z"/>
    </symbol>
  </defs>
</svg>